Format : AVI
Format/Info : Audio Video Interleave
File size : 700 MiB
Duration : 1h 28mn
Overall bit rate : 1 102 Kbps
Writing application : VirtualDubMod 1.5.10.2 (build 2540/release)
Writing library : VirtualDubMod build 2540/release

Video
ID : 0
Format : MPEG-4 Visual
Format profile : Advanced Simple@L5
Format settings, BVOP : 3
Format settings, QPel : No
Format settings, GMC : No warppoints
Format settings, Matrix : Default (H.263)
Muxing mode : Packed bitstream
Codec ID : XVID
Codec ID/Hint : XviD
Duration : 1h 28mn
Bit rate : 900 Kbps
Width : 680 pixels
Height : 384 pixels
Display aspect ratio : 16:9
Frame rate : 25.000 fps
Color space : YUV
Chroma subsampling : 4:2:0
Bit depth : 8 bits
Scan type : Progressive
Compression mode : Lossy
Bits/(Pixel*Frame) : 0.138
Stream size : 572 MiB (82%)
Writing library : XviD 64

Audio
ID : 1
Format : AC-3
Format/Info : Audio Coding 3
Mode extension : CM (complete main)
Codec ID : 2000
Duration : 1h 28mn
Bit rate mode : Constant
Bit rate : 192 Kbps
Channel(s) : 2 channels
Channel positions : Front: L R
Sampling rate : 48.0 KHz
Bit depth : 16 bits
Compression mode : Lossy
Stream size : 122 MiB (17%)
Alignment : Split accross interleaves
Interleave, duration : 40 ms (1.00 video frame)
Interleave, preload duration : 500 ms
 
http://www.imdb.com/title/tt1684555/
 
http://img717.imageshack.us/img717/2388/vlcsnap2011112519h06m50.png
 
http://img607.imageshack.us/img607/9907/vlcsnap2011112519h07m15.png
 
http://img97.imageshack.us/img97/793/vlcsnap2011112519h06m24.png
 
http://img64.imageshack.us/img64/847/vlcsnap2011112519h06m20.png


Source Used


Video...................Russian Webrip ............Thanks

Audio ....................DVDR ....NoGrp ................Thanks ( yes the one with the wonderful colouring )


Reason for READNFO .......what a nightmare this was to sync the vid has glitches time to time and kinda freezes it aint too bad but it took the sync in and out

So yes you gonna notice a few oos spots but not by barely anything but this really was a nighmare to sync so take it or leave it and if your kids notice and start moaning and going on at you send me a pm and i'll sort them out



Retail anytime now as well



Enjoy
